<?xml version="1.0" encoding="utf-8"?>
<!-- Generator: Adobe Illustrator 26.0.1, SVG Export Plug-In . SVG Version: 6.00 Build 0)  -->
<svg version="1.1" id="Layer_1" xmlns="http://www.w3.org/2000/svg" xmlns:xlink="http://www.w3.org/1999/xlink" x="0px" y="0px"
	 viewBox="0 0 1024 1024" style="enable-background:new 0 0 1024 1024;" xml:space="preserve">
<style type="text/css">
	.st0{display:none;fill:#FFFFFF;}
</style>
<path class="st0" d="M0,0h1024v1024H0V0z"/>
<path d="M524.5,33.6c7.1-0.2,12.8,2.3,17.9,7.2c8,7.7,26.9,49.2,33.5,62.4l26.4,52.6c5.8,11.5,66.2,129.7,65.8,133
	c-0.6,4.9-57.8,107.9-66,123L469.6,655.4l-30.3,56.1c-1.9,3.6-11.2,19.7-11.4,22c-1.3,11.9-0.8,30.1-0.8,42.2
	c-0.1,34.7-0.1,69.3,0.2,104c0,9.5-1.8,14-8.3,20.8c-9.7,10.3-24.2,7.9-37.4,7.9l-42.3-0.1l-150.7,0l-81.1,0
	c-9.6,0-33.2,0.5-41.7-0.6c-3.8-0.5-7.4-1.9-10.5-4c-5.1-3.4-8.5-8.4-9.7-14.4c-2.3-12,5.8-23.4,11.4-33.5
	c4.5-8.2,8.9-16.5,13.2-24.9c21.2-41.1,42.8-82,64.7-122.8c41.8-78.5,84.7-156.5,128.5-233.9l167.8-290.7
	c16.6-29.3,34.2-59.2,50-88.7c5.4-10.1,10.7-20.3,15.8-30.6C503.9,50.2,507.4,37,524.5,33.6z"/>
<path d="M769.5,486.6c7.1-0.1,14.2,4.3,17.8,10.4c5.3,8.9,10.2,18.1,15.2,27.1l29.3,53.2L965.4,821c4.8,9,9.8,17.9,14.9,26.8
	c7.9,13.6,20.9,30,11.8,46.2c-3.8,6.8-12.1,13.1-20.1,13.8c-9.9,0.8-20.5,0.4-30.5,0.4h-59.4l-207.5,0l-142.9,0l-47,0
	c-8.5,0-17.1,0.1-25.6-0.1c-4.7-0.1-8.8-1.4-9.8-6.6c-1.3-7.1,3.4-10.3,8.6-13.6c33.8-21.6,67.3-43.6,101-65.4
	c13.9-9,18-20.1,26.1-33.9l28.6-49.3L708,575.7l29.2-50.4c5.4-9.3,10.8-19,16.5-28.1C757.9,490.5,761.6,488.1,769.5,486.6z"/>
</svg>
